<svg width="21" height="21" viewBox="0 0 21 21" fill="none" xmlns="http://www.w3.org/2000/svg">
<path d="M17.9246 3.07535C15.9414 1.09221 13.3046 0 10.5 0C7.69531 0 5.0585 1.09221 3.07535 3.07535C1.09216 5.05854 0 7.69535 0 10.5C0 13.3046 1.09216 15.9414 3.07535 17.9246C5.05854 19.9078 7.69531 21 10.5 21C13.3046 21 15.9414 19.9078 17.9246 17.9246C19.9078 15.9414 21 13.3046 21 10.5C21 7.69535 19.9078 5.05858 17.9246 3.07535ZM10.5 19.7695C5.38876 19.7695 1.23047 15.6112 1.23047 10.5C1.23047 5.38876 5.38876 1.23047 10.5 1.23047C15.6112 1.23047 19.7695 5.38876 19.7695 10.5C19.7695 15.6112 15.6112 19.7695 10.5 19.7695Z" fill="#60A6DA"/>
<path d="M15.5164 7.13094C15.2762 6.89075 14.8866 6.89075 14.6464 7.13098L9.21349 12.5639L6.3536 9.70397C6.11337 9.46375 5.7238 9.46375 5.48353 9.70397C5.24326 9.9442 5.24326 10.3338 5.48353 10.574L8.77844 13.8689C8.89857 13.9891 9.05603 14.0491 9.21345 14.0491C9.37087 14.0491 9.52837 13.989 9.64846 13.8689L15.5164 8.00101C15.7567 7.76078 15.7567 7.37121 15.5164 7.13094Z" fill="#60A6DA"/>
</svg>
