<svg width="1280" height="454" viewBox="0 0 1280 454" fill="none" xmlns="http://www.w3.org/2000/svg">
<mask id="path-1-inside-1_561_6" fill="white">
<path fill-rule="evenodd" clip-rule="evenodd" d="M0 150.763C14.3615 138.554 246.598 -50.8678 688.649 75.517C1086.1 189.15 1212.5 65.7094 1265.07 14.3685C1270.85 8.72198 1275.74 3.94758 1280 0.456564V454H0L0 150.763Z"/>
</mask>
<path fill-rule="evenodd" clip-rule="evenodd" d="M0 150.763C14.3615 138.554 246.598 -50.8678 688.649 75.517C1086.1 189.15 1212.5 65.7094 1265.07 14.3685C1270.85 8.72198 1275.74 3.94758 1280 0.456564V454H0L0 150.763Z" fill="white"/>
<path d="M688.649 75.517L688.924 74.5555L688.924 74.5555L688.649 75.517ZM0 150.763L-0.6477 150.001L-1 150.3L-1 150.763L0 150.763ZM1265.07 14.3685L1264.37 13.653L1264.37 13.653L1265.07 14.3685ZM1280 0.456564H1281V-1.65638L1279.37 -0.316766L1280 0.456564ZM1280 454V455H1281V454H1280ZM0 454L-1 454L-1 455H0V454ZM688.924 74.5555C246.46 -51.9472 13.8869 137.645 -0.6477 150.001L0.6477 151.524C14.8361 139.463 246.736 -49.7884 688.374 76.4785L688.924 74.5555ZM1264.37 13.653C1238.13 39.2839 1193.54 82.8335 1105.94 105.841C1018.31 128.855 887.536 131.34 688.924 74.5555L688.374 76.4785C887.212 133.327 1018.37 130.908 1106.44 107.775C1194.55 84.6353 1239.44 40.794 1265.77 15.0839L1264.37 13.653ZM1279.37 -0.316766C1275.07 3.20797 1270.14 8.01764 1264.37 13.653L1265.77 15.0839C1271.56 9.42632 1276.42 4.68718 1280.63 1.22989L1279.37 -0.316766ZM1279 0.456564V454H1281V0.456564H1279ZM1280 453H0V455H1280V453ZM1 454L1 150.763L-1 150.763L-1 454L1 454Z" fill="white" mask="url(#path-1-inside-1_561_6)"/>
</svg>
